<svg width="14" height="17" viewBox="0 0 14 17" fill="none" xmlns="http://www.w3.org/2000/svg">
<path fill-rule="evenodd" clip-rule="evenodd" d="M3 16.545H0V5.96436H3V16.545Z" fill="white"/>
<path fill-rule="evenodd" clip-rule="evenodd" d="M1.49108 3.61328H1.47404C0.578773 3.61328 0 2.82917 0 1.84924C0 0.848586 0.5964 0.0864258 1.50865 0.0864258C2.42091 0.0864258 2.98269 0.848586 3 1.84924C3 2.82917 2.42091 3.61328 1.49108 3.61328Z" fill="white"/>
<path fill-rule="evenodd" clip-rule="evenodd" d="M13.9999 16.5447H11.0519V11.0141C11.0519 9.62491 10.6253 8.67698 9.55814 8.67698C8.74368 8.67698 8.25855 9.31602 8.04549 9.93325C7.96754 10.1545 7.94841 10.4627 7.94841 10.7716V16.545H5C5 16.545 5.03886 7.1774 5 6.20738H7.94841V7.67161C8.33968 6.96773 9.04046 5.96436 10.6057 5.96436C12.5456 5.96436 14 7.44218 14 10.6174L13.9999 16.5447Z" fill="white"/>
</svg>
