<svg width="13" height="14" viewBox="0 0 13 14" fill="none" xmlns="http://www.w3.org/2000/svg">
<path fill-rule="evenodd" clip-rule="evenodd" d="M6.31224 3.87782L6.34042 4.43716L5.87076 4.36867C4.16119 4.10613 2.66767 3.21575 1.39959 1.72037L0.779637 0.978384L0.619952 1.52631C0.281797 2.74773 0.497841 4.03763 1.20233 4.90518C1.57806 5.38462 1.49352 5.45311 0.84539 5.16773C0.619952 5.07641 0.422695 5.00792 0.403908 5.04217C0.338156 5.12207 0.563593 6.16085 0.742064 6.57179C0.986288 7.14255 1.48413 7.70189 2.02893 8.03293L2.4892 8.29547L1.9444 8.30689C1.41838 8.30689 1.39959 8.3183 1.45595 8.55802C1.64381 9.3 2.38588 10.0876 3.21248 10.4301L3.79486 10.6698L3.28763 11.0351C2.53617 11.5602 1.65321 11.857 0.770244 11.8798C0.347549 11.8912 0 11.9369 0 11.9711C0 12.0853 1.14597 12.7245 1.81289 12.9757C3.81365 13.7177 6.19013 13.398 7.97484 12.131C9.24293 11.2292 10.511 9.43699 11.1028 7.70189C11.4222 6.77726 11.7415 5.08783 11.7415 4.27735C11.7415 3.75226 11.7697 3.68377 12.2957 3.05593C12.6057 2.69065 12.8969 2.29112 12.9532 2.17697C13.0472 1.96008 13.0378 1.96008 12.5587 2.15414C11.7603 2.49659 11.6476 2.45093 12.0421 1.93725C12.3333 1.57197 12.6808 0.909894 12.6808 0.715837C12.6808 0.681591 12.5399 0.738667 12.3803 0.841403C12.2112 0.955554 11.8355 1.12678 11.5537 1.22952L11.0464 1.42357L10.5862 1.04688C10.3325 0.841403 9.9756 0.613101 9.78773 0.54461C9.30868 0.384799 8.57601 0.407629 8.14392 0.590271C6.96977 1.10395 6.2277 2.4281 6.31224 3.87782Z" fill="white"/>
</svg>
